#!OML:ASF F:\VICON\USERDATA\INSTALL\Justin_Nancy\Justin_Nancy.ASF
:FULLY-SPECIFIED
:DEGREES
221
root 12.6691 17.4084 1.58252 1.85927 -17.4707 8.87836
lowerback 6.8883 -0.828239 -6.86451
upperback -0.663888 -1.67887 0.0762095
thorax -4.36737 -0.667235 4.11284
lowerneck -15.7015 -4.60123 -10.2852
upperneck 23.474 -5.49367 6.58239
head 10.6077 -2.69795 3.31838
rclavicle -2.45499e-014 1.74931e-014
rhumerus -35.0597 -15.6258 -77.7009
rradius 29.6933
rwrist 8.07698
rhand -13.4856 15.1579
rfingers 7.12502
rthumb 12.6251 -14.4406
lclavicle -2.45499e-014 1.74931e-014
lhumerus -20.7096 8.00658 80.0332
lradius 28.3743
lwrist -6.72687
lhand -14.2112 29.3862
lfingers 7.12502
lthumb 11.9255 59.0266
rfemur -31.6416 -10.6973 22.5443
rtibia 16.5772
rfoot -9.93015 -32.6897
rtoes 20.4757
lfemur -2.03084 3.27897 -28.6605
ltibia 20.0171
lfoot -15.6873 12.5936
ltoes -6.43454
222
root 12.6239 17.3974 1.68681 1.74415 -18.2825 9.08215
lowerback 6.85537 -0.792605 -6.87121
upperback -0.726962 -1.63291 0.0565324
thorax -4.42099 -0.641013 4.09158
lowerneck -15.1691 -4.61324 -10.4841
upperneck 23.1036 -5.51362 6.63808
head 10.3805 -2.72567 3.36944
rclavicle -3.00165e-014 2.78299e-014
rhumerus -34.9883 -15.6438 -77.7015
rradius 29.6281
rwrist 8.10819
rhand -13.6177 14.565
rfingers 7.12502
rthumb 12.4977 -15.0413
lclavicle -3.00165e-014 2.78299e-014
lhumerus -20.866 8.11419 79.9827
lradius 28.1515
lwrist -6.74115
lhand -14.9753 29.0873
lfingers 7.12502
lthumb 11.1886 58.7689
rfemur -31.4937 -10.7812 22.9152
rtibia 16.7819
rfoot -10.5023 -32.132
rtoes 23.1084
lfemur -1.55037 3.80522 -28.778
ltibia 19.9223
lfoot -15.656 12.4856
ltoes -8.47322
223
root 12.576 17.3896 1.79621 1.62378 -19.0284 9.24951
lowerback 6.71353 -0.813917 -6.89898
upperback -0.744379 -1.65068 0.108427
thorax -4.35474 -0.650572 4.15973
lowerneck -12.0437 -4.35374 -11.8849
upperneck 20.5849 -5.41696 8.17866
head 8.97627 -2.67216 4.16135
rclavicle 3.37934e-015 -2.14687e-014
rhumerus -34.8479 -15.7811 -77.5134
rradius 29.3595
rwrist 8.45007
rhand -13.4098 15.1799
rfingers 7.12502
rthumb 12.6982 -14.414
lclavicle 3.37934e-015 -2.14687e-014
lhumerus -21.3326 8.64548 79.9255
lradius 28.2727
lwrist -7.29066
lhand -15.2478 29.0603
lfingers 7.12502
lthumb 10.9257 58.7561
rfemur -31.3226 -11.0763 23.4069
rtibia 16.9249
rfoot -8.51122 -30.745
rtoes 22.2452
lfemur -0.964028 3.33096 -29.0382
ltibia 20.0012
lfoot -15.3101 13.6016
ltoes -11.4144
224
root 12.527 17.3785 1.90193 1.37958 -19.7487 9.55942
lowerback 6.6912 -0.827368 -6.98049
upperback -0.725012 -1.67596 0.0406243
thorax -4.31875 -0.66389 4.13604
lowerneck -15.3021 -4.48097 -10.072
upperneck 22.982 -5.28785 6.13537
head 10.3128 -2.64031 3.14708
rclavicle -2.24627e-014 1.27222e-014
rhumerus -34.7537 -15.735 -77.5725
rradius 29.4276
rwrist 8.5205
rhand -13.1671 15.3838
rfingers 7.12502
rthumb 12.9321 -14.1955
lclavicle -2.24627e-014 1.27222e-014
lhumerus -21.789 9.15123 79.7445
lradius 28.558
lwrist -7.61903
lhand -14.6007 29.4223
lfingers 7.12502
lthumb 11.5499 59.0841
rfemur -31.0592 -11.462 23.7389
rtibia 16.9892
rfoot -5.42202 -28.732
rtoes 18.7449
lfemur -0.398921 2.90942 -29.432
ltibia 20.2245
lfoot -15.6076 14.6397
ltoes -12.4156
225
root 12.4752 17.3574 2.00828 1.22188 -20.4031 9.83128
lowerback 6.64797 -0.887414 -7.0047
upperback -0.699117 -1.7571 -0.0398613
thorax -4.25908 -0.707502 4.07142
lowerneck -18.5745 -4.68206 -8.54251
upperneck 25.3273 -5.31843 4.4085
head 11.7301 -2.69125 2.23442
rclavicle -4.35338e-014 1.43125e-014
rhumerus -34.4523 -16.0991 -77.6105
rradius 29.3295
rwrist 8.56909
rhand -12.6088 15.5927
rfingers 7.12502
rthumb 13.4703 -13.9517
lclavicle -4.35338e-014 1.43125e-014
lhumerus -22.0618 9.5932 79.5391
lradius 28.5979
lwrist -7.82691
lhand -14.8473 29.1415
lfingers 7.12502
lthumb 11.312 58.8164
rfemur -30.7054 -11.4968 23.9028
rtibia 16.9083
rfoot -2.20666 -26.299
rtoes 13.4668
lfemur -0.15496 3.51352 -29.5154
ltibia 20.5856
lfoot -15.9512 14.1247
ltoes -12.3941
226
root 12.417 17.3491 2.1171 1.19021 -21.0499 9.89563
lowerback 6.53552 -0.938138 -6.85492
upperback -0.821095 -1.80811 -0.0302614
thorax -4.32095 -0.730916 4.00087
lowerneck -16.4834 -4.87492 -10.0681
upperneck 23.7346 -5.74024 6.05118
head 10.857 -2.8441 3.04331
rclavicle 4.94974e-014 -1.51076e-014
rhumerus -34.5199 -16.4892 -77.3635
rradius 29.204
rwrist 8.33939
rhand -11.792 16.5698
rfingers 7.12502
rthumb 14.2575 -12.9208
lclavicle 4.94974e-014 -1.51076e-014
lhumerus -22.5798 9.98289 79.4254
lradius 28.5155
lwrist -8.08355
lhand -16.0581 28.0868
lfingers 7.12502
lthumb 10.1441 57.8223
rfemur -30.1743 -10.5699 23.8455
rtibia 16.811
rfoot -1.94605 -25.0223
rtoes 15.1031
lfemur -0.08631 3.89984 -29.4043
ltibia 21.1439
lfoot -15.2109 13.8594
ltoes -15.8532
227
root 12.3499 17.3655 2.21662 1.21721 -21.7274 9.64221
lowerback 6.50001 -0.957999 -6.57216
upperback -0.899024 -1.80493 0.123034
thorax -4.38549 -0.730043 4.00234
lowerneck -16.5602 -5.01362 -10.0783
upperneck 23.8357 -5.90982 5.95999
head 10.9234 -2.93342 2.98552
rclavicle 4.14466e-014 0
rhumerus -34.6463 -16.2334 -77.3109
rradius 29.3835
rwrist 7.95032
rhand -11.4844 16.8123
rfingers 7.12502
rthumb 14.5538 -12.6571
lclavicle 4.14466e-014 0
lhumerus -23.0182 10.3429 79.4073
lradius 28.5424
lwrist -7.79564
lhand -16.3197 27.7132
lfingers 7.12502
lthumb 9.89176 57.4608
rfemur -29.5398 -8.97904 23.8479
rtibia 16.8284
rfoot -4.19306 -25.4584
rtoes 23.555
lfemur 0.0419025 3.81011 -29.0127
ltibia 21.8159
lfoot -15.2524 14.0176
ltoes -16.3814
228
root 12.2821 17.3738 2.32015 1.16117 -22.5733 9.51922
lowerback 6.47801 -0.91826 -6.37553
upperback -0.90171 -1.73304 0.155166
thorax -4.38817 -0.698744 3.918
lowerneck -16.5778 -5.11651 -9.94198
upperneck 23.7344 -6.0684 5.88043
head 10.8963 -3.00182 2.90764
rclavicle 6.2319e-014 -5.56597e-015
rhumerus -34.5766 -16.4154 -77.4202
rradius 29.4439
rwrist 8.13776
rhand -11.4526 16.9351
rfingers 7.12502
rthumb 14.5844 -12.5322
lclavicle 6.2319e-014 -5.56597e-015
lhumerus -23.3344 10.5146 79.2929
lradius 28.5382
lwrist -7.09248
lhand -16.2995 27.2432
lfingers 7.12502
lthumb 9.9112 56.9899
rfemur -29.067 -7.73314 23.9382
rtibia 16.8044
rfoot -4.63217 -25.7735
rtoes 28.0101
lfemur 0.161074 4.54074 -28.6282
ltibia 22.5741
lfoot -15.211 13.4931
ltoes -17.0428
229
root 12.2151 17.3868 2.42628 0.995183 -23.1572 9.68261
lowerback 6.50659 -0.969004 -6.38106
upperback -0.983844 -1.80584 0.166026
thorax -4.48173 -0.729332 3.94162
lowerneck -16.4364 -5.14834 -10.0797
upperneck 23.5899 -6.14199 6.08985
head 10.8342 -3.02528 2.9964
rclavicle -2.33572e-014 -2.8625e-014
rhumerus -34.4851 -16.761 -77.3588
rradius 29.3631
rwrist 8.3755
rhand -11.7433 15.5237
rfingers 7.12502
rthumb 14.3043 -13.9636
lclavicle -2.33572e-014 -2.8625e-014
lhumerus -23.9403 11.1291 79.2004
lradius 28.4642
lwrist -7.225
lhand -16.6644 26.7909
lfingers 7.12502
lthumb 9.5592 56.5541
rfemur -28.6048 -7.01582 23.7581
rtibia 16.7216
rfoot -3.40758 -25.8824
rtoes 30.3209
lfemur 0.194953 5.02722 -28.5388
ltibia 23.5312
lfoot -14.8154 13.016
ltoes -19.4235
230
root 12.1402 17.4194 2.52759 1.09097 -23.7302 9.33576
lowerback 6.41305 -1.22022 -6.06042
upperback -1.08006 -2.09843 0.443753
thorax -4.49587 -0.87619 4.07822
lowerneck -15.9263 -5.07053 -10.8064
upperneck 23.1271 -6.06136 6.82533
head 10.6081 -2.9747 3.39996
rclavicle -3.01159e-014 1.35174e-014
rhumerus -34.1523 -16.4393 -77.4842
rradius 29.2059
rwrist 8.4522
rhand -12.0699 13.43
rfingers 7.12502
rthumb 13.9896 -16.0793
lclavicle -3.01159e-014 1.35174e-014
lhumerus -24.7179 12.3434 79.0235
lradius 28.4264
lwrist -7.57064
lhand -16.9019 27.1353
lfingers 7.12502
lthumb 9.32999 56.9088
rfemur -28.0358 -6.03028 23.9682
rtibia 16.6239
rfoot -2.70863 -26.3965
rtoes 33.0491
lfemur -0.0793818 5.13093 -27.9236
ltibia 24.8075
lfoot -14.4336 12.7008
ltoes -20.8152
231
root 12.0646 17.4435 2.62632 1.1339 -24.5869 9.02464
lowerback 6.27963 -1.51501 -5.93077
upperback -1.20016 -2.45951 0.803898
thorax -4.4943 -1.05121 4.41312
lowerneck -14.8342 -4.80666 -11.6067
upperneck 22.4649 -5.7367 7.45629
head 10.1712 -2.84191 3.81406
rclavicle 2.62396e-014 -3.97569e-015
rhumerus -33.9219 -15.3666 -77.7629
rradius 29.0744
rwrist 8.03465
rhand -11.3085 15.7316
rfingers 7.12502
rthumb 14.7233 -13.7255
lclavicle 2.62396e-014 -3.97569e-015
lhumerus -25.7164 13.873 78.6982
lradius 28.2913
lwrist -7.80318
lhand -17.2309 26.4459
lfingers 7.12502
lthumb 9.01256 56.2334
rfemur -27.4326 -5.02554 24.2719
rtibia 16.4986
rfoot -2.29646 -26.5744
rtoes 34.1276
lfemur -0.50353 5.6452 -27.2856
ltibia 26.3487
lfoot -13.862 12.3564
ltoes -21.7713
232
root 11.9924 17.4551 2.72709 1.15955 -25.6011 8.55893
lowerback 6.2541 -1.53018 -5.43174
upperback -1.2545 -2.43038 1.00725
thorax -4.54999 -1.04429 4.34261
lowerneck -14.1639 -4.83535 -12.0434
upperneck 22.0365 -5.83288 7.86458
head 9.92799 -2.88945 4.02151
rclavicle -4.90998e-014 0
rhumerus -33.9932 -15.8732 -77.4004
rradius 28.649
rwrist 8.88888
rhand -12.7822 13.7076
rfingers 7.12502
rthumb 13.3031 -15.8478
lclavicle -4.90998e-014 0
lhumerus -26.4377 14.7325 78.4757
lradius 28.0202
lwrist -8.15196
lhand -17.3945 25.8748
lfingers 7.12502
lthumb 8.85467 55.669
rfemur -26.6581 -4.54616 24.9531
rtibia 16.1486
rfoot -2.17127 -25.7696
rtoes 34.1451
lfemur -0.966587 6.33626 -26.4953
ltibia 28.1901
lfoot -13.2825 11.8655
ltoes -22.7938
233
root 11.9216 17.4684 2.8315 1.25011 -26.7877 7.99908
lowerback 6.21387 -1.30392 -4.60768
upperback -1.16396 -2.06129 0.9456
thorax -4.50201 -0.88741 3.77602
lowerneck -13.9911 -5.21403 -11.8572
upperneck 21.4647 -6.46882 8.14232
head 9.7669 -3.13584 3.99373
rclavicle 1.70955e-014 -4.77083e-015
rhumerus -33.8695 -16.7709 -77.5162
rradius 28.554
rwrist 8.88878
rhand -13.3973 13.4091
rfingers 7.12502
rthumb 12.7102 -16.1841
lclavicle 1.70955e-014 -4.77083e-015
lhumerus -26.5197 14.8126 78.2902
lradius 27.9293
lwrist -7.45818
lhand -16.6994 28.2923
lfingers 7.12502
lthumb 9.52539 58.057
rfemur -25.7765 -4.46068 25.8864
rtibia 15.6554
rfoot -1.95033 -24.1752
rtoes 33.5489
lfemur -1.50017 7.12842 -25.6507
ltibia 30.2337
lfoot -12.5907 11.1958
ltoes -25.1971
